<svg height="20" viewBox="0 0 512 512" width="20" xmlns="http://www.w3.org/2000/svg"
    xmlns:xlink="http://www.w3.org/1999/xlink">
    <linearGradient id="linear-gradient" gradientUnits="userSpaceOnUse" x1="66.156" x2="445.844" y1="469.47"
        y2="89.783">
        <stop offset="0" stop-color="#f35d2e" />
        <stop offset="1" stop-color="#ffde3e" />
    </linearGradient>
    <g id="gradient">
        <path
            d="m392 50a34.038 34.038 0 0 0 -34-34h-204a34.038 34.038 0 0 0 -34 34v334a8 8 0 0 0 -6.86 3.884 176.444 176.444 0 0 0 -25.14 90.763v9.353a8 8 0 0 0 8 8h320a8 8 0 0 0 8-8v-9.353a176.444 176.444 0 0 0 -25.14-90.763 8 8 0 0 0 -6.86-3.884zm-16 329.148a56.124 56.124 0 0 0 -48-27.148q-.4 0-.813.007a55.628 55.628 0 0 0 -31.463-15.464 55.965 55.965 0 0 0 -79.448 0 55.628 55.628 0 0 0 -31.463 15.464q-.413-.007-.813-.007a56.124 56.124 0 0 0 -48 27.148v-91.148h240zm-15.993 4.852h-208.014a40.093 40.093 0 0 1 32.007-16c1.041 0 2.153.051 3.4.156a8.012 8.012 0 0 0 6.66-2.665 39.764 39.764 0 0 1 26.668-13.345 8 8 0 0 0 5.34-2.666 39.972 39.972 0 0 1 59.864 0 8 8 0 0 0 5.34 2.666 39.764 39.764 0 0 1 26.668 13.345 8 8 0 0 0 6.66 2.665c1.247-.105 2.359-.156 3.4-.156a40.093 40.093 0 0 1 32.007 16zm-32.007-352v22a10.011 10.011 0 0 1 -10 10h-124a10.011 10.011 0 0 1 -10-10v-22zm-192 18a18.021 18.021 0 0 1 18-18h14v22a26.03 26.03 0 0 0 26 26h124a26.03 26.03 0 0 0 26-26v-22h14a18.021 18.021 0 0 1 18 18v222h-240zm272 428.647v1.353h-304v-1.353a160.45 160.45 0 0 1 20.6-78.647h262.8a160.45 160.45 0 0 1 20.6 78.647zm-160-54.647a8 8 0 1 1 8 8 8 8 0 0 1 -8-8zm-14 20a8 8 0 1 1 8-8 8 8 0 0 1 -8 8zm52-8a8 8 0 1 1 -8-8 8 8 0 0 1 8 8zm-13.062 16c0 6.627-7.6 12-16.969 12s-16.969-5.373-16.969-12 7.6-12 16.969-12 16.969 5.373 16.969 12zm-19.438-332a87.71 87.71 0 0 0 -68.3 32.513 8 8 0 0 1 -12.412-10.1 104.143 104.143 0 0 1 106.702-35.135 8 8 0 1 1 -3.99 15.494 88.335 88.335 0 0 0 -22-2.772zm80.711 22.417a8 8 0 1 1 -12.412 10.1 88.137 88.137 0 0 0 -24.305-20.742 8 8 0 1 1 8.013-13.848 104.057 104.057 0 0 1 28.699 24.49zm-94.715 11.348a56.386 56.386 0 0 0 -29.455 18.93 8 8 0 1 1 -12.412-10.1 72.5 72.5 0 0 1 37.871-24.324 8 8 0 0 1 3.991 15.494zm69.876 8.833a8 8 0 1 1 -12.412 10.1 55.7 55.7 0 0 0 -36.46-20.264 8 8 0 0 1 1.982-15.877 71.63 71.63 0 0 1 46.885 26.043zm-55.872 21.402a23.918 23.918 0 0 0 -18.626 8.872 8 8 0 0 1 -12.412-10.1 39.856 39.856 0 0 1 31.038-14.772 8 8 0 0 1 0 16zm29.882 10.028a8 8 0 0 1 -11.254-1.155 24.289 24.289 0 0 0 -2.767-2.873 8 8 0 0 1 10.588-12 40.306 40.306 0 0 1 4.584 4.773 8 8 0 0 1 -1.156 11.255zm-19.382 37.972a8 8 0 1 1 -8-8 8 8 0 0 1 8 8zm-32 0a6 6 0 1 1 -6-6 6 6 0 0 1 6 6zm60 0a6 6 0 1 1 -6-6 6 6 0 0 1 6 6zm44 224a8 8 0 0 1 -8 8h-8a8 8 0 0 1 0-16h8a8 8 0 0 1 8 8zm48-8a8 8 0 0 1 0 16h-24a8 8 0 0 1 0-16z"
            fill="url(#linear-gradient)" />
    </g>
</svg>