<svg xmlns="http://www.w3.org/2000/svg" xmlns:xlink="http://www.w3.org/1999/xlink" viewBox="0 0 64 64" width="20"
  height="20">
  <defs>
    <linearGradient id="linear-gradient" x1="-3" y1="27.032" x2="63.37" y2="27.032" gradientUnits="userSpaceOnUse">
      <stop offset="0" stop-color="#41dfd0" />
      <stop offset="1" stop-color="#ee83ef" />
    </linearGradient>
    <linearGradient id="linear-gradient-2" y1="42.036" x2="63.37" y2="42.036" xlink:href="#linear-gradient" />
    <linearGradient id="linear-gradient-3" y1="39.5" x2="63.37" y2="39.5"
      gradientTransform="translate(53.019 -6.787) rotate(63.435)" xlink:href="#linear-gradient" />
    <linearGradient id="linear-gradient-4" y1="32.024" x2="63.37" y2="32.024" xlink:href="#linear-gradient" />
    <linearGradient id="linear-gradient-5" y1="32" x2="63.37" y2="32" xlink:href="#linear-gradient" />
  </defs>
  <g id="Gradient_outline" transform="rotate(315 32 32)">
    <path d="M37.352,23.937l-.7-1.874-6.7,2.514A3.012,3.012,0,0,0,28,27.386V32h2V27.386a1,1,0,0,1,.649-.936Z"
      style="fill:url(#linear-gradient)" />
    <path d="M34.629,41.929A30.991,30.991,0,0,0,45,44V42a29.355,29.355,0,0,1-9.629-1.929Z"
      style="fill:url(#linear-gradient-2)" />
    <rect x="31" y="38.382" width="2" height="2.236" transform="translate(-17.641 50.457) rotate(-63.435)"
      style="fill:url(#linear-gradient-3)" />
    <path
      d="M55,15a85.834,85.834,0,0,0-14.225,2.025,110.4,110.4,0,0,0-13.222,4.08C25.9,21.933,24,23.236,24,26v1H11.9A5,5,0,1,0,4,32a5,5,0,1,0,7.9,5H24v2c0,2.748,1.8,4.016,3.613,4.922a78.091,78.091,0,0,0,13.193,4.059,60.122,60.122,0,0,0,11.563,1.068q1.146,0,2.363-.041L55,49c4.547,0,7-8.759,7-17S59.547,15,55,15ZM10,35v1a3,3,0,1,1-3-3h.261V31H7a3,3,0,1,1,3-3v1H24v6Zm18.447,7.1C26.641,41.2,26,40.39,26,39V26c0-1.162.409-2.087,2.361-3.067a109.029,109.029,0,0,1,12.864-3.958A88.677,88.677,0,0,1,51.353,17.3C49.157,20.441,48,26.342,48,32,48,37.875,49.253,44,51.616,47.035a57.978,57.978,0,0,1-10.422-1.016A77.91,77.91,0,0,1,28.447,42.105ZM55,47c-2.36,0-5-6.415-5-15s2.64-15,5-15,5,6.415,5,15S57.36,47,55,47Z"
      style="fill:url(#linear-gradient-4)" />
    <path
      d="M52,32c0,2.851,1.29,5,3,5s3-2.149,3-5-1.29-5-3-5S52,29.149,52,32Zm4,0c0,1.936-.751,3-1,3s-1-1.064-1-3,.751-3,1-3S56,30.064,56,32Z"
      style="fill:url(#linear-gradient-5)" />
  </g>
</svg>