<svg
  width="20"
  height="20"
  xmlns="http://www.w3.org/2000/svg"
  viewBox="0 0 64 64"
  xmlns:xlink="http://www.w3.org/1999/xlink"
>
  <linearGradient
      id="linear-gradient"
      x1="0.19582"
      x2="0.90472"
      y1="0.93246"
      y2="-0.08025"
    >
      <stop offset="0" stop-color="#41dfd0" />
      <stop offset="1" stop-color="#ee83ef" />
    </linearGradient>
  <linearGradient
    id="linear-gradient-2"
    x1="48.42"
    x2="-14.92"
    xlink:href="#linear-gradient"
    y1="-12.92"
    y2="50.42"
  />
  <linearGradient
    id="linear-gradient-3"
    x1="38.92"
    x2="-24.42"
    xlink:href="#linear-gradient"
    y1="-22.42"
    y2="40.92"
  />
  <linearGradient
    id="linear-gradient-4"
    x1="70.17"
    x2="6.83"
    xlink:href="#linear-gradient"
    y1="8.83"
    y2="72.17"
  />
  <linearGradient
    id="linear-gradient-5"
    x1="80.42"
    x2="17.08"
    xlink:href="#linear-gradient"
    y1="19.08"
    y2="82.42"
  />
  <g class="layer">
    <path
      d="m1,52.5l4,0l0,0.5c0,3.58 3.59,6.5 8,6.5a9.45,9.45 0 0 0 4,-0.88a9.38,9.38 0 0 0 4,0.88a8.94,8.94 0 0 0 5.76,-2l36.24,0a1,1 0 0 0 1,-1l0,-30a1,1 0 0 0 -1,-1l-8,0a1,1 0 0 0 0,2l7,0l0,28l-33.62,0a5.43,5.43 0 0 0 0.62,-2.5c0,-3.58 -3.59,-6.5 -8,-6.5a9.7,9.7 0 0 0 -2,0.21l0,-19.21l30,0a1,1 0 0 0 0,-2l-9,0l0,-20a1,1 0 0 0 -1,-1l-38,0a1,1 0 0 0 -1,1l0,46a1,1 0 0 0 1,1zm12,5c-3.31,0 -6,-2 -6,-4.5s2.69,-4.5 6,-4.5a7.73,7.73 0 0 1 2,0.26a5.59,5.59 0 0 0 0,8.49a7.73,7.73 0 0 1 -2,0.25zm2.54,-10.65a5.57,5.57 0 0 0 0.67,-0.79q0.42,-0.61 0.8,-1.25l0,2.57a8.93,8.93 0 0 0 -1.47,-0.53zm2.46,-21.35a1,1 0 0 0 -1,1l0,13.82a24.55,24.55 0 0 1 -2.45,4.61a3.58,3.58 0 1 1 -5.93,-4a17.83,17.83 0 0 0 3,-9.9a17.82,17.82 0 0 0 -3,-9.9a3.58,3.58 0 0 1 5.93,-4a25.57,25.57 0 0 1 3.65,8.37l-0.2,0zm9,27.5c0,2.48 -2.69,4.5 -6,4.5s-6,-2 -6,-4.5s2.69,-4.5 6,-4.5s6,2.02 6,4.5zm-2.23,-27.5a17.87,17.87 0 0 0 -2.16,-4.4a3.58,3.58 0 0 1 5.93,-4a25.62,25.62 0 0 1 3.65,8.43l-7.42,-0.03zm-22.77,-19l36,0l0,19l-3.76,0a27.21,27.21 0 0 0 -4,-9.56a5.58,5.58 0 0 0 -9.24,6.28a15.78,15.78 0 0 1 1.69,3.28l-2.45,0a27.19,27.19 0 0 0 -4,-9.56a5.58,5.58 0 0 0 -9.24,6.28a15.79,15.79 0 0 1 2.67,8.78a15.8,15.8 0 0 1 -2.67,8.78a5.58,5.58 0 0 0 1.48,7.75l0.11,0.07a7.05,7.05 0 0 0 -2.94,2.9l-3.65,0l0,-44z"
      fill="url(#linear-gradient)"
    />
    <path
      d="m14,11.5l22,0a1,1 0 0 0 0,-2l-22,0a1,1 0 1 0 0,2z"
      fill="url(#linear-gradient-2)"
    />
    <path
      d="m8,11.5a1,1 0 0 0 0,-2l-4,0a1,1 0 0 0 0,2l4,0z"
      fill="url(#linear-gradient-3)"
    />
    <path
      d="m26.5,41.5a11,11 0 1 0 11,-11a11,11 0 0 0 -11,11zm20,0a9,9 0 1 1 -9,-9a9,9 0 0 1 9,9z"
      fill="url(#linear-gradient-4)"
    />
    <path
      d="m59,52.5l0,-22a1,1 0 0 0 -2,0l0,22a1,1 0 0 0 2,0z"
      fill="url(#linear-gradient-5)"
    />
  </g>
</svg>