<svg
  width="24"
  height="24"
  xmlns="http://www.w3.org/2000/svg"
  viewBox="0 0 512 512"
>
  <defs>
    <linearGradient
        id="linear-gradient"
        x1="0.19582"
        x2="0.90472"
        y1="0.93246"
        y2="-0.08025"
      >
        <stop offset="0" stop-color="#41dfd0" />
        <stop offset="1" stop-color="#ee83ef" />
      </linearGradient>
  </defs>
  <g class="layer">
    <path
      d="m256,384a32.038,32.038 0 0 1 -32,-32l0,-226.756l-89.38,89.376a32.041,32.041 0 0 1 -45.258,0a32.035,32.035 0 0 1 0,-45.257l144.009,-144.006a32.042,32.042 0 0 1 45.258,0l144.012,144.006a32,32 0 0 1 -45.258,45.258l-89.383,-89.377l0,226.756a32.038,32.038 0 0 1 -32,32zm-24,-286.071a8,8 0 0 1 8,8l0,246.071a16,16 0 0 0 32,0l0,-246.07a8,8 0 0 1 13.658,-5.657l103.042,103.033a16,16 0 0 0 22.63,-22.629l-144.015,-144.006a16.022,16.022 0 0 0 -22.63,0l-144.012,144.006a16,16 0 0 0 0,22.629a16.022,16.022 0 0 0 22.63,0l103.038,-103.033a8,8 0 0 1 5.659,-2.344zm232,398.071l-416,0a32.036,32.036 0 0 1 -32,-32l0,-112a32,32 0 0 1 64,0l0,80l352,0l0,-80a32,32 0 0 1 64,0l0,112a32.036,32.036 0 0 1 -32,32zm-416,-160a16.019,16.019 0 0 0 -16,16l0,112a16.019,16.019 0 0 0 16,16l416,0a16.019,16.019 0 0 0 16,-16l0,-112a16,16 0 0 0 -32,0l0,88a8,8 0 0 1 -8,8l-368,0a8,8 0 0 1 -8,-8l0,-88a16.019,16.019 0 0 0 -16,-16z"
      fill="url(#linear-gradient)"
      />
  </g>
</svg>
