<svg
  width="20"
  height="20"
  viewBox="0 0 512 512"
  xmlns="http://www.w3.org/2000/svg"
  xmlns:xlink="http://www.w3.org/1999/xlink"
>
  <linearGradient
    id="linear-gradient"
    x1="0.19582"
    x2="0.90472"
    y1="0.93246"
    y2="-0.08025"
  >
    <stop offset="0" stop-color="#41dfd0" />
    <stop offset="1" stop-color="#ee83ef" />
  </linearGradient>
  <linearGradient
    id="linear-gradient-2"
    x1="48.42"
    x2="-14.92"
    xlink:href="#linear-gradient"
    y1="-12.92"
    y2="50.42"
  />
  <linearGradient
    id="linear-gradient-3"
    x1="38.92"
    x2="-24.42"
    xlink:href="#linear-gradient"
    y1="-22.42"
    y2="40.92"
  />
  <linearGradient
    id="linear-gradient-4"
    x1="70.17"
    x2="6.83"
    xlink:href="#linear-gradient"
    y1="8.83"
    y2="72.17"
  />
  <linearGradient
    id="linear-gradient-5"
    x1="80.42"
    x2="17.08"
    xlink:href="#linear-gradient"
    y1="19.08"
    y2="82.42"
  />
  <g class="layer">
    <path
      d="m335.2,34.983c-37.221,-18.365 -75.586,-28.99 -108.029,-29.918c-33.888,-0.969 -57.7,8.809 -67.142,27.535c-1.245,2.055 -12.554,21.159 -23.23,53.8a391.954,391.954 0 0 0 -18.368,141.62c3.161,58.9 0.28,97.06 -2.693,118.7a46.438,46.438 0 0 0 6.693,31.25l-23.18,42.757c-0.023,0.041 -0.045,0.083 -0.066,0.125a3.682,3.682 0 0 1 -3.218,2.046a32.15,32.15 0 1 0 8.693,63.2a31.982,31.982 0 0 0 16.207,17.787a31.522,31.522 0 0 0 13.693,3.114a32.142,32.142 0 0 0 24.6,-52.9a4.067,4.067 0 0 1 -0.566,-4.482l20.969,-41.2a46.481,46.481 0 0 0 33.137,-15.717c19.338,-22.087 56.83,-57.333 125.622,-99.81c87.678,-54.148 103.884,-113.09 105.647,-120.684c17.799,-38.141 -29.718,-98.215 -108.769,-137.223zm-187.3,409.171a16.033,16.033 0 0 0 2.078,17.668a20.318,20.318 0 0 1 1.968,23.3a20.013,20.013 0 0 1 -37.15,-7.847a6,6 0 0 0 -8.848,-4.541a19.794,19.794 0 0 1 -20.118,-0.5a20.181,20.181 0 0 1 10.277,-37.342a15.652,15.652 0 0 0 13.722,-8.507l20.931,-38.608a47.026,47.026 0 0 0 8.457,5.994l16.074,8.919a45.756,45.756 0 0 0 11.446,4.453l-18.837,37.011zm184.113,-161.479c-70.062,43.261 -108.466,79.41 -128.346,102.117a34.576,34.576 0 0 1 -42.553,7.405l-16.074,-8.919a34.317,34.317 0 0 1 -17.413,-34.93c3.044,-22.155 6,-61.127 2.786,-120.975c-3.938,-73.361 14.127,-131.076 27.25,-162.48c9.137,34.987 50.875,76.507 110.627,105.992c37.219,18.364 75.583,28.99 108.027,29.918q2.3,0.066 4.541,0.066c16.821,0 30.972,-2.776 41.878,-8.092c-11.859,22.255 -37.412,56.98 -90.723,89.898zm100.852,-115.034c-7.026,14.273 -27.507,21.994 -56.2,21.167c-30.755,-0.88 -67.356,-11.067 -103.06,-28.685c-71.085,-35.072 -118.242,-90.894 -102.982,-121.895c6.686,-13.583 25.562,-21.228 52.101,-21.228q2.022,0 4.1,0.059c30.755,0.88 67.356,11.067 103.06,28.685c71.083,35.073 118.241,90.895 102.981,121.897z"
      fill="url(#linear-gradient)"
    />
    <path
      d="m323,56.692c-30.062,-14.834 -60.519,-24.521 -85.759,-27.278c-27.256,-2.976 -45.837,2.636 -52.319,15.805s0.391,31.332 19.348,51.154c17.559,18.361 43.784,36.643 73.847,51.477s60.519,24.521 85.759,27.278a124.818,124.818 0 0 0 13.5,0.779c19.888,0 33.469,-5.722 38.815,-16.584c6.48,-13.165 -0.391,-31.332 -19.347,-51.155c-17.552,-18.361 -43.778,-36.643 -73.844,-51.476zm82.428,97.331c-3.97,8.065 -19.017,11.491 -40.249,9.176c-23.882,-2.609 -52.916,-11.882 -81.753,-26.111c-61.806,-30.5 -95.844,-70.1 -87.737,-86.57c3.152,-6.405 13.291,-9.886 27.967,-9.886a113.421,113.421 0 0 1 12.281,0.711c23.883,2.609 52.916,11.882 81.753,26.111c61.81,30.496 95.849,70.1 87.742,86.569l-0.004,0z"
      fill="url(#linear-gradient-2)"
    />
    <path
      d="m312.1,82.323c-11.877,-5.859 -23.965,-9.693 -34.039,-10.793c-15.491,-1.7 -21.46,3.466 -23.737,8.092s-2.726,12.5 8.047,23.763c7.007,7.327 17.407,14.59 29.282,20.45s23.966,9.693 34.039,10.794a52.586,52.586 0 0 0 5.693,0.329c11.322,0 16.07,-4.41 18.044,-8.42c2.275,-4.623 2.726,-12.5 -8.047,-23.763c-7.008,-7.328 -17.408,-14.591 -29.282,-20.452zm26.563,38.914c-0.254,0.515 -3.126,2.395 -11.668,1.462c-8.715,-0.952 -19.38,-4.371 -30.032,-9.627c-24.143,-11.912 -33.137,-25.583 -31.873,-28.152c0.2,-0.415 2.112,-1.718 7.321,-1.718a40.086,40.086 0 0 1 4.347,0.256c8.715,0.952 19.381,4.37 30.032,9.626c24.141,11.916 33.136,25.585 31.871,28.153l0.002,0z"
      fill="url(#linear-gradient-3)"
    />
    <path
      d="m159.768,191.238a6,6 0 0 0 -11.972,-0.828a397.988,397.988 0 0 0 -0.365,48.606c1.209,22.523 1.626,43.789 1.239,63.206a6,6 0 0 0 5.88,6.118l0.121,0a6,6 0 0 0 6,-5.881c0.392,-19.709 -0.03,-41.271 -1.255,-64.087a385.954,385.954 0 0 1 0.352,-47.134z"
      fill="url(#linear-gradient-4)"
    />
    <path
      d="m158.075,153.946a6,6 0 0 0 -6.828,5.037c-0.2,1.31 -0.387,2.266 -0.586,3.279c-0.272,1.374 -0.552,2.794 -0.815,4.917a6,6 0 0 0 5.215,6.692a6.087,6.087 0 0 0 0.746,0.047a6,6 0 0 0 5.947,-5.263c0.211,-1.7 0.428,-2.8 0.679,-4.068c0.207,-1.048 0.441,-2.235 0.679,-3.813a6,6 0 0 0 -5.037,-6.828z"
      fill="url(#linear-gradient-5)"
    />
  </g>
</svg>
