<svg id="Layer_5" enable-background="new 0 0 64 64" height="20" viewBox="0 0 64 64" width="20"
    xmlns="http://www.w3.org/2000/svg" xmlns:xlink="http://www.w3.org/1999/xlink">
    <linearGradient id="SVGID_1_" gradientUnits="userSpaceOnUse" x1="32" x2="32" y1="63" y2="1">
        <stop offset="0" stop-color="#41dfd0" />
        <stop offset="1" stop-color="#ee83ef" />
    </linearGradient>
    <path
        d="m63 20c0-4.286-3.019-7.939-7.143-8.802-.878-5.778-5.942-10.198-11.857-10.198-3.892 0-7.457 1.842-9.714 4.973-1.34-.639-2.805-.973-4.286-.973-2.648 0-5.107 1.029-6.96 2.845l-2.251-4.503c-.722-1.445-2.174-2.342-3.789-2.342s-3.067.897-3.789 2.342l-11.764 23.528c-.293.585-.447 1.24-.447 1.894 0 2.255 1.776 4.086 4 4.212v3.61l-2 2v5.598c-1.161.414-2 1.514-2 2.816 0 1.654 1.346 3 3 3s3-1.346 3-3c0-1.302-.839-2.402-2-2.816v-4.77l2-2v-4.414h2v19.184c-1.161.414-2 1.514-2 2.816 0 1.654 1.346 3 3 3s3-1.346 3-3c0-1.302-.839-2.402-2-2.816v-19.184h4v25c0 2.757 2.243 5 5 5h24c2.757 0 5-2.243 5-5v-29h4v23.184c-1.161.414-2 1.514-2 2.816 0 1.654 1.346 3 3 3s3-1.346 3-3c0-1.302-.839-2.402-2-2.816v-23.243c.695-.077 1.362-.24 2-.466v8.939l2 2v4.77c-1.161.414-2 1.514-2 2.816 0 1.654 1.346 3 3 3s3-1.346 3-3c0-1.302-.839-2.402-2-2.816v-5.598l-2-2v-9.108c2.41-1.616 4-4.365 4-7.478zm-59 28c-.552 0-1-.449-1-1s.448-1 1-1 1 .449 1 1-.448 1-1 1zm6 8c-.552 0-1-.449-1-1s.448-1 1-1 1 .449 1 1-.448 1-1 1zm50-8c-.552 0-1-.449-1-1s.448-1 1-1 1 .449 1 1-.448 1-1 1zm-30-41c1.437 0 2.855.395 4.102 1.142l.851.51.517-.847c1.836-3.009 5.025-4.805 8.53-4.805 5.148 0 9.522 4.018 9.957 9.146l.068.813.81.096c3.515.418 6.165 3.403 6.165 6.945 0 3.86-3.141 7-7 7h-21.391c-.02-.043-.035-.088-.056-.13l-8.561-17.122c1.519-1.748 3.672-2.748 6.008-2.748zm-9 44h22v6h-22zm22-2h-22v-6h22zm0-8h-22v-8h7.764c2.255 0 4.087-1.776 4.212-4h10.024zm-40-12.236c0-.345.082-.691.236-1l11.764-23.528c.381-.762 1.147-1.236 2-1.236s1.619.474 2 1.236l11.764 23.528c.154.309.236.655.236 1 0 1.233-1.003 2.236-2.236 2.236h-23.528c-1.233 0-2.236-1.003-2.236-2.236zm44 29.236c0 1.654-1.346 3-3 3h-24c-1.654 0-3-1.346-3-3v-25h2v24c0 1.103.897 2 2 2h22c1.103 0 2-.897 2-2v-28h2zm7-2c-.552 0-1-.449-1-1s.448-1 1-1 1 .449 1 1-.448 1-1 1zm-7-33h7c1.654 0 3-1.346 3-3h2c0 2.757-2.243 5-5 5h-7zm-2 2h-2v-2h2zm-1-18v-2c4.411 0 8 3.589 8 8h-2c0-3.309-2.691-6-6-6zm-27 22c1.654 0 3-1.346 3-3s-1.346-3-3-3-3 1.346-3 3 1.346 3 3 3zm0-4c.552 0 1 .449 1 1s-.448 1-1 1-1-.449-1-1 .448-1 1-1zm0-4c1.654 0 3-1.346 3-3v-8c0-1.654-1.346-3-3-3s-3 1.346-3 3v8c0 1.654 1.346 3 3 3zm-1-11c0-.551.448-1 1-1s1 .449 1 1v8c0 .551-.448 1-1 1s-1-.449-1-1zm15 43h2v2h-2zm-8 0h2v2h-2zm4 0h2v2h-2zm14-6h-2v-2h2zm-4 0h-2v-2h2zm-6 0v-2h2v2zm6-8c2.206 0 4-1.794 4-4s-1.794-4-4-4-4 1.794-4 4 1.794 4 4 4zm0-6c1.103 0 2 .897 2 2s-.897 2-2 2-2-.897-2-2 .897-2 2-2zm-14 2h2v4h-2zm4 0h2v4h-2z"
        fill="url(#SVGID_1_)" />
</svg>