<svg height="20" viewBox="0 0 512 512" width="20" xmlns="http://www.w3.org/2000/svg"
    xmlns:xlink="http://www.w3.org/1999/xlink">
    <linearGradient id="linear-gradient" gradientUnits="userSpaceOnUse" x1="50.05" x2="481.256" y1="461.363"
        y2="30.158">
        <stop offset="0" stop-color="#41dfd0" />
        <stop offset="1" stop-color="#ee83ef" />
    </linearGradient>
    <g id="gradient">
        <path
            d="m362.022 177.536a8 8 0 0 1 .661-11.295 87.946 87.946 0 0 1 111.263-4.624 8 8 0 1 1 -9.613 12.791 71.945 71.945 0 0 0 -91.016 3.788 8 8 0 0 1 -11.3-.66zm96.318 12.617a55.968 55.968 0 0 0 -74.4 0 8 8 0 0 0 10.635 11.955 39.965 39.965 0 0 1 53.132 0 8 8 0 1 0 10.635-11.955zm-21.265 23.925a23.931 23.931 0 0 0 -31.871 0 8 8 0 1 0 10.633 11.955 7.933 7.933 0 0 1 10.6 0 8 8 0 1 0 10.635-11.953zm-13.075 193.922a24.028 24.028 0 0 0 24-24 8 8 0 0 0 -16 0 8 8 0 0 1 -16 0v-32a8 8 0 0 1 16 0 8 8 0 0 0 16 0 24 24 0 0 0 -48 0v32a24.028 24.028 0 0 0 24 24zm32-80a8 8 0 1 0 -8-8 8 8 0 0 0 8 8zm40-274v402a24.028 24.028 0 0 1 -24 24h-96a24.028 24.028 0 0 1 -24-24v-40h-248v24a8 8 0 0 1 -8 8h-56a8 8 0 0 1 -8-8v-24.838a22.036 22.036 0 0 1 -16-21.162v-340a22.025 22.025 0 0 1 22-22h436a22.025 22.025 0 0 1 22 22zm-16 242h-112v128h112zm-48 160a8 8 0 1 0 -8 8 8.009 8.009 0 0 0 8-8zm48-176v-8a8.009 8.009 0 0 0 -8-8h-96a8.009 8.009 0 0 0 -8 8v8zm-448-208h152a8.032 8.032 0 0 1 2.53.41l22.77 7.59h92.813l14.311-7.155a7.994 7.994 0 0 1 3.576-.845h160v-18a6.006 6.006 0 0 0 -6-6h-436a6.006 6.006 0 0 0 -6 6zm56 344h-40v16h40zm264-16v-128a24.028 24.028 0 0 1 24-24h96a23.889 23.889 0 0 1 8 1.376v-161.376h-158.111l-14.311 7.155a7.994 7.994 0 0 1 -3.578.845h-96a8.032 8.032 0 0 1 -2.53-.41l-22.77-7.59h-150.7v306a6.006 6.006 0 0 0 6 6zm24 64h25.376a23.943 23.943 0 0 1 4.755-24h-38.131v16a8.009 8.009 0 0 0 8 8zm104-8v-16h-38.131a23.943 23.943 0 0 1 4.755 24h25.376a8.009 8.009 0 0 0 8-8zm-144-320v200a8 8 0 0 1 -8 8h-176a8 8 0 0 1 -8-8v-200a8 8 0 0 1 8-8h176a8 8 0 0 1 8 8zm-16 8h-160v184h160zm-107.1 73.3-8.174-4.719-18.657 5a8 8 0 1 1 -4.14-15.455l14.129-3.786-3.787-14.129a8 8 0 0 1 15.456-4.141l5 18.656 8.174 4.72 11.6-6.7v-9.44l-13.661-13.649a8 8 0 0 1 11.314-11.314l10.346 10.344 10.343-10.344a8 8 0 1 1 11.314 11.314l-13.657 13.657v9.44l11.6 6.7 8.175-4.72 5-18.656a8 8 0 0 1 15.455 4.141l-3.786 14.129 14.128 3.786a8 8 0 1 1 -4.14 15.455l-18.657-5-8.174 4.719v13.392l8.174 4.719 18.657-5a8 8 0 1 1 4.14 15.455l-14.128 3.786 3.786 14.129a8 8 0 1 1 -15.455 4.141l-5-18.656-8.175-4.72-11.6 6.7v9.44l13.657 13.657a8 8 0 0 1 -11.314 11.314l-10.343-10.352-10.343 10.344a8 8 0 0 1 -11.314-11.314l13.657-13.657v-9.44l-11.6-6.7-8.174 4.72-5 18.656a8 8 0 0 1 -15.456-4.141l3.787-14.129-14.129-3.786a8 8 0 1 1 4.14-15.455l18.657 5 8.175-4.711zm16 13.39 11.6 6.7 11.6-6.7v-13.384l-11.6-6.7-11.6 6.7zm11.1 65.31a8 8 0 1 0 8 8 8 8 0 0 0 -8-8zm-30 2a6 6 0 1 0 6 6 6 6 0 0 0 -6-6zm60 0a6 6 0 1 0 6 6 6 6 0 0 0 -6-6z"
            fill="url(#linear-gradient)" />
    </g>
</svg>