<svg
  width="20"
  height="20"
  viewBox="0 0 498 498"
  xmlns="http://www.w3.org/2000/svg"
>
  <linearGradient
    id="linear-gradient"
    x1="0.19582"
    x2="0.90472"
    y1="0.93246"
    y2="-0.08025"
  >
    <stop offset="0" stop-color="#41dfd0" />
    <stop offset="1" stop-color="#ee83ef" />
  </linearGradient>
  <g class="layer">
    <path
      d="m64.22656,249.45703l0,8l-16,0l0,-8c0,-74.99219 61.00782,-136 136,-136l0,16c-66.16797,0 -120,53.83203 -120,120zm-16,40l16,0l0,-16l-16,0l0,16zm40,144l-88,0l0,-17.89062l0.83985,-1.6875c9.92187,-19.82422 15.16015,-42.02344 15.16015,-64.19922l0,-100.22266c0,-92.64062 75.36328,-168 168,-168l82.58594,0l32.58203,-81.45703l79.73828,19.9375l-13.71093,33.50391c-2.60938,6.36718 -1.89844,13.30078 1.93359,19.01562c3.83984,5.71875 9.99219,9 16.87109,9l112,0l0,31.29688c0,85.07812 -53.51953,162.3164 -133.1914,192.1914l-1.35938,0.51172l-1.44922,0c-9.03906,0 -17.29297,-3.1289 -24,-8.21094l0,176.21094c0,13.23047 -10.76562,24 -24,24c-13.23047,0 -24,-10.76953 -24,-24l0,-102.3125c0,-30.6875 -14.10937,-59.23437 -37.91797,-78.08203c-0.6875,0.78516 -1.36718,1.5625 -2.08203,2.32031l0,106.07422l-48,0l0,-79.7539l-21.75,5.4414c3.72657,8.22266 5.75,17.12891 5.75,26.3125c0,35.28516 -28.71093,64 -64,64c-3.10937,0 -6.20703,-0.22656 -9.26172,-0.66406c-3.12109,9.63281 -12.07421,16.66406 -22.73828,16.66406zm80,-80c0,-7.82422 -1.94922,-15.36719 -5.51953,-22.18359c-29.91797,9.35156 -50.48047,36.96484 -50.48047,68.64844l0,0.80468c2.63282,0.44141 5.29688,0.73047 8,0.73047c26.47266,0 48,-21.52734 48,-48zm64,32l0,-76.6875c-4.97265,3.23047 -10.34375,5.92578 -16,8.125l0,68.5625l16,0zm176,-288c-39.69531,0 -72,32.30469 -72,72l0,96c0,12.77344 10.03516,23.2461 22.63282,23.95703c72.66406,-27.92578 121.36718,-98.72656 121.36718,-176.66015l0,-15.29688l-72,0zm-124.18359,-16l70.08984,0c-0.01562,-0.02344 -0.03906,-0.05078 -0.05859,-0.07422c-6.75781,-10.0625 -8.05469,-22.77343 -3.46094,-34l6.71094,-16.40625l-48.26563,-12.0664l-25.01562,62.54687zm-38.66406,16c16.35156,13.20703 26.84765,33.39063 26.84765,56l0,81.53516c0,16.38281 -4.55859,31.85547 -12.51953,45.16015c27.9375,21.86329 44.51953,55.16016 44.51953,90.99219l0,102.3125c0,4.40625 3.59375,8 8,8c4.41016,0 8,-3.59375 8,-8l0,-304c0,-29.76172 14.89063,-56.0664 37.5625,-72l-112.41015,0zm-228.26172,320l71.10937,0c4.41016,0 8,-3.59375 8,-8l0,-9.53515c0,-40.45704 27.41016,-75.5625 66.65625,-85.3711l38.8086,-9.70312c32.11328,-8.03125 54.53515,-36.75 54.53515,-69.85547l0,-81.53516c0,-30.88281 -25.11719,-56 -56,-56l-16,0c-83.8164,0 -152,68.1836 -152,152l0,100.22266c0,23.32031 -5.21484,46.66406 -15.10937,67.77734zm446.20703,-287.17578l-15.91406,-1.64062c-5.39063,52.38281 -36.39063,98.40625 -82.92578,123.12109l7.5039,14.13281c51.2461,-27.22265 85.39844,-77.91797 91.33594,-135.61328zm0,0"
      fill="url(#linear-gradient)"
    />
  </g>
</svg>
