<svg
  width="20"
  height="20"
  viewBox="0 0 512 512"
  xmlns="http://www.w3.org/2000/svg"
  xmlns:xlink="http://www.w3.org/1999/xlink"
>
  <linearGradient
    id="linear-gradient"
    x1="0.19582"
    x2="0.90472"
    y1="0.93246"
    y2="-0.08025"
  >
    <stop offset="0" stop-color="#41dfd0" />
    <stop offset="1" stop-color="#ee83ef" />
  </linearGradient>
  <linearGradient
    id="linear-gradient-2"
    x1="48.42"
    x2="-14.92"
    xlink:href="#linear-gradient"
    y1="-12.92"
    y2="50.42"
  />
  <linearGradient
    id="linear-gradient-3"
    x1="38.92"
    x2="-24.42"
    xlink:href="#linear-gradient"
    y1="-22.42"
    y2="40.92"
  />
  <linearGradient
    id="linear-gradient-4"
    x1="70.17"
    x2="6.83"
    xlink:href="#linear-gradient"
    y1="8.83"
    y2="72.17"
  />
  <linearGradient
    id="linear-gradient-5"
    x1="80.42"
    x2="17.08"
    xlink:href="#linear-gradient"
    y1="19.08"
    y2="82.42"
  />
  <g class="layer">
    <path
      d="m412.818,148.2a182.87,182.87 0 0 0 -12.9,-43.252a164.889,164.889 0 0 0 -135.8,-99.14c-31.827,-3.168 -62.394,2.846 -88.4,17.4c-47.408,26.514 -78.364,62.258 -92.018,106.236c-11.2,36.1 -8.168,68.579 -6.355,87.986a114.924,114.924 0 0 1 0.791,12.086c-1.4,30.811 -11.987,53.946 -21.327,74.358c-6.543,14.309 -12.728,27.826 -14.589,41.726c-7.413,55.346 19.191,88.2 35.709,102.858c28.129,24.961 62.187,29.516 83.3,29.516a127.721,127.721 0 0 0 18.287,-1.228c1.139,-0.169 2.256,-0.374 3.376,-0.576c24.249,20.787 48.502,30.83 74.962,30.83a114.2,114.2 0 0 0 19.491,-1.73c41.676,-7.212 66.743,-37.522 115.043,-99.91c52.306,-67.562 78.561,-101.474 78.68,-145.254c0.106,-38.688 -23.227,-83.358 -58.25,-111.906zm-235.065,316.678c-9.047,1.344 -55.992,6.432 -91.859,-25.4c-18,-15.97 -38.121,-44.945 -31.781,-92.288c1.625,-12.13 7.18,-24.27 13.612,-38.327c9.794,-21.405 20.9,-45.667 22.4,-78.807a114.981,114.981 0 0 0 -0.83,-13.748c-3.48,-37.252 -11.634,-124.502 92.274,-182.631c19.942,-11.155 42.918,-16.6 66.294,-16.6a152.85,152.85 0 0 1 141.067,92.705a169.006,169.006 0 0 1 14.356,67.957c-0.134,49.083 -31.29,89.418 -93.361,169.778l4.747,3.668l-4.749,-3.667c-59.13,76.55 -87.169,110.676 -132.17,117.36zm205.147,-66.867c-46.375,59.9 -70.32,88.979 -107.6,95.43c-27.965,4.843 -52.955,-1.829 -77.866,-20.928c41.7,-13.739 71.972,-52.909 121.987,-117.659c63.731,-82.507 95.72,-123.92 95.865,-177.08c0.01,-3.878 -0.128,-7.771 -0.382,-11.667c26.919,26.152 44.25,62.347 44.164,93.963c-0.109,39.696 -25.527,72.53 -76.168,137.941z"
      fill="url(#linear-gradient)"
    />
    <path
      d="m386.471,181.116a153.986,153.986 0 0 0 -10.082,-62.288c-8.62,-22.2 -21.886,-40.535 -39.431,-54.482c-19.74,-15.695 -47.253,-26.558 -75.483,-29.806c-30.081,-3.46 -58.468,1.843 -79.923,14.938c-91.935,56.108 -82.693,139.3 -78.746,174.826c0.625,5.628 1.165,10.488 0.968,12.756c-2.292,26.412 -11.887,46.63 -20.353,64.466c-5.95,12.539 -11.571,24.381 -13.633,36.428c-8.252,48.2 12.844,75.767 26.154,87.908c20.575,18.77 45.806,22.757 63.531,22.756a109.872,109.872 0 0 0 20.643,-1.869c43.247,-8.555 70.686,-44.569 120.5,-109.949c55.768,-73.2 83.761,-109.945 85.855,-155.684zm-208.683,253.862c-7.416,1.465 -45.834,7.494 -73.758,-17.981c-14.047,-12.814 -29.338,-36.578 -22.414,-77.018c1.783,-10.419 6.818,-21.026 12.646,-33.307c8.9,-18.754 18.988,-40.009 21.467,-68.575c0.3,-3.451 -0.244,-8.344 -1,-15.118c-1.867,-16.807 -4.992,-44.937 3.088,-75.005c9.714,-36.148 33.26,-65.841 69.984,-88.254c15.289,-9.331 34.7,-14.217 55.849,-14.217a143.943,143.943 0 0 1 16.45,0.958c26.063,3 51.354,12.941 69.388,27.277c15.857,12.607 27.872,29.239 35.711,49.433a141.87,141.87 0 0 1 9.281,57.4c-1.922,42 -29.156,77.743 -83.415,148.961c-51.653,67.797 -76.06,98.083 -113.277,105.446z"
      fill="url(#linear-gradient-2)"
    />
    <path
      d="m292.27,99.31a28.566,28.566 0 0 0 -27.6,-2.106c-8.747,3.9 -14.73,11.44 -16,20.162c-1.614,11.069 2.318,15.728 6.485,19.55c2.356,2.161 3.15,2.89 2.093,7.975a15.445,15.445 0 0 1 -0.846,2.905a10.2,10.2 0 0 0 5.7,13.536a31.266,31.266 0 0 0 10.956,1.822c9.973,0 21.666,-3.894 28.27,-13.872c9.816,-14.832 5.16,-40.518 -9.058,-49.972zm-0.95,43.349c-5.345,8.075 -16.925,9.391 -23.189,7.981a31.77,31.77 0 0 0 0.864,-3.306c2.255,-10.854 -1.594,-15.467 -5.73,-19.261c-2.368,-2.172 -3.556,-3.262 -2.723,-8.974c0.676,-4.63 4.047,-8.719 9.018,-10.936a16.621,16.621 0 0 1 16.066,1.14c8.651,5.752 11.791,24.144 5.694,33.356z"
      fill="url(#linear-gradient-3)"
    />
    <path
      d="m190.741,72.028c-32.543,20.724 -52.605,46.583 -61.332,79.06a6,6 0 0 0 4.237,7.352a6,6 0 0 0 7.354,-4.24c7.913,-29.445 26.292,-53.012 56.188,-72.051a6,6 0 1 0 -6.445,-10.122l-0.002,0.001z"
      fill="url(#linear-gradient-4)"
    />
    <path
      d="m221.049,59.683c-1.811,0.368 -3.625,0.791 -5.391,1.257a6,6 0 1 0 3.06,11.6c1.546,-0.408 3.134,-0.778 4.721,-1.1a6,6 0 1 0 -2.39,-11.759l0,0.002z"
      fill="url(#linear-gradient-5)"
    />
  </g>
</svg>