<svg enable-background="new 0 0 64 64" width="20" height="20" viewBox="0 0 64 64" xmlns="http://www.w3.org/2000/svg"
  xmlns:xlink="http://www.w3.org/1999/xlink">
  <linearGradient id="linear-gradient" x1="0.19582" x2="0.90472" y1="0.93246" y2="-0.08025">
    <stop offset="0" stop-color="#41dfd0" />
    <stop offset="1" stop-color="#ee83ef" />
  </linearGradient>
  <path
    d="m18.986 31.165-1.973-.329c.66-3.96 4.054-6.835 8.069-6.835h5.918v2h-5.917c-3.034-.001-5.598 2.171-6.097 5.164zm-1.677 4.454.586-1.171-1.789-.895-.586 1.171c-.792 1.585-2.155 2.767-3.835 3.327l.632 1.897c2.187-.728 3.96-2.266 4.992-4.329zm15.586 17.934-1.789.895c.741 1.482 1.965 2.707 3.447 3.447l.895-1.789c-1.098-.549-2.005-1.456-2.553-2.553zm-31.895-30.781c0-5.74 3.444-10.827 8.773-12.959l14.623-5.849c4.918-1.967 10.097-2.964 15.393-2.964 4.809 0 9.464 1.388 13.493 4h5.364c2.401 0 4.354 1.953 4.354 4.354 0 .556-.104 1.1-.311 1.617l-6.74 16.851c-.731 1.829-1.931 3.446-3.47 4.676-1.949 1.56-4.381 2.434-6.874 2.492-2.523 1.205-4.598 3.233-5.849 5.736l-.759 1.517c0 .032.003.065.003.097 0 1.579.744 3.017 1.978 3.935 1.41-1.99 3.485-3.5 5.964-4.161l5.093-1.358c1.157-.309 1.965-1.36 1.965-2.558 0-1.763 1.435-3.198 3.198-3.198 1.519 0 2.838 1.081 3.136 2.571l.538 2.691c.085.423.128.857.128 1.29 0 2.507-1.393 4.762-3.636 5.884l-.651.326c-.675.337-1.29.758-1.848 1.238h.135c4.411 0 8 3.589 8 8v4c0 1.103-.897 2-2 2h-4c-1.103 0-2-.897-2-2v-3c0-.551-.449-1-1-1h-3.749c-.945.979-2.176 1.663-3.563 1.902l.172.517c.093.278.14.567.14.86 0 1.5-1.221 2.721-2.721 2.721h-6.417c-5.743 0-10.736-3.688-12.425-9.177l-1.22-3.965-6.344-2.82-5.038.891c-.266.047-.538.071-.809.071-2.234 0-4.155-1.594-4.566-3.79l-1.745-9.306c-.124-.659-.229-1.322-.321-1.987-2.79-2.631-4.394-6.299-4.394-10.145zm16 22.389v-1.085c0-5.004 4.072-9.076 9.076-9.076 2.119 0 4.182.747 5.81 2.104l1.325 1.103c1.138.949 2.39 1.724 3.736 2.316-.261-6.655-1.935-13.263-4.912-19.218-2.253-4.506-6.783-7.305-11.82-7.305-7.287 0-13.215 5.928-13.215 13.215 0 2.451.229 4.914.681 7.321l1.745 9.306c.263 1.402 1.656 2.371 3.061 2.118zm2 .189 6.412 2.85c1.194.531 2.463.8 3.771.8 2.764 0 5.364-1.218 7.133-3.341l1.017-1.221c-.176-.558-.277-1.142-.308-1.744-1.851-.699-3.567-1.679-5.094-2.951l-1.325-1.103c-1.269-1.057-2.878-1.64-4.53-1.64-3.902 0-7.076 3.174-7.076 7.076zm22 7.101c0 1.296.551 2.46 1.424 3.289.306-1.222.739-2.397 1.285-3.514-.764-.588-1.649-.976-2.599-1.13-.07.443-.11.895-.11 1.355zm4.65.331c1.303.666 2.72 1.061 4.18 1.165.058-.167.12-.333.16-.509.303-1.363.864-2.624 1.619-3.749-.528-.666-1.231-1.176-2.046-1.448l-.272-.091c-1.493 1.315-2.735 2.878-3.641 4.632zm-1.409 4.003c.417.127.85.215 1.308.215 1.162 0 2.22-.439 3.03-1.164-1.295-.206-2.552-.611-3.728-1.198-.255.697-.454 1.415-.61 2.147zm10.759-5.785h-1.869c-.551.87-.959 1.836-1.189 2.872-.088.393-.211.768-.362 1.128h2.42c1.654 0 3 1.346 3 3v3h4v-4c0-3.309-2.691-6-6-6zm-10.08-5.812c.804.692 1.502 1.495 2.055 2.401.994-1.021 2.101-1.94 3.332-2.71l1.163-.727 1.061 1.696-1.163.727c-.086.054-.162.118-.247.173.665.346 1.258.806 1.763 1.358.842-.856 1.829-1.58 2.935-2.133l.651-.326c1.56-.78 2.53-2.35 2.53-4.095 0-.302-.03-.604-.089-.897l-.538-2.692c-.112-.558-.606-.963-1.175-.963-.66 0-1.198.538-1.198 1.198 0 2.102-1.418 3.949-3.45 4.49l-5.093 1.358c-.921.246-1.772.637-2.537 1.142zm-3.26 3.959c1.097.211 2.13.655 3.041 1.304.271-.424.566-.83.872-1.23-.534-1.059-1.283-1.98-2.21-2.718-.722.769-1.299 1.664-1.703 2.644zm-2.66 3.304c0-1.566.347-3.068.968-4.43-.651-.451-1.199-1.012-1.652-1.638l-.463.556c-2.151 2.581-5.311 4.061-8.67 4.061-.891 0-1.765-.114-2.619-.318l.786 2.553c1.428 4.644 5.653 7.765 10.513 7.765h6.417c.397 0 .72-.323.72-.721 0-.078-.013-.154-.037-.228l-.377-1.13c-3.155-.468-5.586-3.187-5.586-6.47zm3.36-17.825c-1.579-.39-3.061-1.085-4.37-2.051.39 1.916.667 3.853.827 5.8.951-1.45 2.153-2.72 3.543-3.749zm16.286-27.626h-12.646c-6.837 0-12.466 5.271-12.955 12.051.278.438.542.888.778 1.36 1.372 2.743 2.467 5.623 3.302 8.578l.222.266c1.984 2.38 4.899 3.745 7.997 3.745 2.131 0 4.221-.733 5.885-2.064 1.269-1.015 2.259-2.349 2.862-3.857l6.74-16.851c.112-.279.169-.573.169-.874 0-1.298-1.056-2.354-2.354-2.354zm-55.646 15.772c0 2.408.742 4.732 2.067 6.693-.04-.75-.067-1.5-.067-2.25 0-8.39 6.825-15.215 15.215-15.215 4.316 0 8.306 1.787 11.135 4.837 1.454-6.799 7.473-11.837 14.65-11.837h3.107c-2.918-1.308-6.079-2-9.318-2-5.04 0-9.969.949-14.649 2.821l-14.623 5.849c-4.567 1.827-7.517 6.185-7.517 11.102z"
    fill="url(#linear-gradient)" />
</svg>