<svg
  width="20"
  height="20"
  xmlns="http://www.w3.org/2000/svg"
  xmlns:xlink="http://www.w3.org/1999/xlink"
  viewBox="0 0 512 512"
>
  <linearGradient
    id="linear-gradient"
    x1="0.19582"
    x2="0.90472"
    y1="0.93246"
    y2="-0.08025"
  >
    <stop offset="0" stop-color="#41dfd0" />
    <stop offset="1" stop-color="#ee83ef" />
  </linearGradient>
  <linearGradient
    id="linear-gradient-2"
    x1="48.42"
    x2="-14.92"
    xlink:href="#linear-gradient"
    y1="-12.92"
    y2="50.42"
  />
  <linearGradient
    id="linear-gradient-3"
    x1="38.92"
    x2="-24.42"
    xlink:href="#linear-gradient"
    y1="-22.42"
    y2="40.92"
  />
  <linearGradient
    id="linear-gradient-4"
    x1="70.17"
    x2="6.83"
    xlink:href="#linear-gradient"
    y1="8.83"
    y2="72.17"
  />
  <linearGradient
    id="linear-gradient-5"
    x1="80.42"
    x2="17.08"
    xlink:href="#linear-gradient"
    y1="19.08"
    y2="82.42"
  />
  <g class="layer">
    <path
      d="m412.318,120.71a105.553,105.553 0 0 0 94.006,-57.051a6,6 0 0 0 -5.324,-8.765l-490,0a6,6 0 0 0 -5.324,8.765a105.553,105.553 0 0 0 94.006,57.051l115.463,0l0,27.524l-95.061,0a58.058,58.058 0 0 0 -57.66,49.234l-27.906,177.364a6,6 0 0 0 5.926,6.933l43.525,0l0,18.473l-48.823,0a28.031,28.031 0 0 0 -28,28l0,22.868a6,6 0 0 0 6,6l485.709,0a6,6 0 0 0 6,-6l0,-22.868a28.031,28.031 0 0 0 -28,-28l-31.4,0l0,-18.473l26.1,0a6,6 0 0 0 5.926,-6.933l-27.905,-177.364a58.058,58.058 0 0 0 -57.66,-49.234l-95.06,0l0,-27.524l115.462,0zm64.537,291.528a16.019,16.019 0 0 1 16,16l0,16.868l-473.709,0l0,-16.868a16.018,16.018 0 0 1 16,-16l441.709,0zm-84.939,-252a46.117,46.117 0 0 1 45.807,39.1l26.815,170.432l-297.038,0a6,6 0 0 0 0,12l265.959,0l0,18.473l-337.49,0l0,-18.478l31.531,0a6,6 0 0 0 0,-12l-80.038,0l26.815,-170.432a46.117,46.117 0 0 1 45.807,-39.1l271.832,0.005zm-164.771,-12l0,-27.528l57.711,0l0,27.524l-57.711,0.004zm-127.463,-39.528a93.572,93.572 0 0 1 -78.191,-41.816l469.018,0a93.572,93.572 0 0 1 -78.191,41.816l-312.636,0z"
      fill="url(#linear-gradient)"
    />
    <path
      d="m256.793,279.292a10.6,10.6 0 0 0 10.59,-10.583a10.493,10.493 0 0 0 -0.712,-3.782l12.28,-17.927a6,6 0 0 0 -9.9,-6.781l-12.267,17.91a10.583,10.583 0 1 0 0.009,21.165l0,-0.002z"
      fill="url(#linear-gradient-2)"
    />
    <path
      d="m100.646,189.6a6,6 0 0 0 -6.767,5.12l-0.274,1.981a6,6 0 0 0 5.12,6.767a6.152,6.152 0 0 0 0.831,0.057a6,6 0 0 0 5.935,-5.177l0.275,-1.982a6,6 0 0 0 -5.12,-6.766z"
      fill="url(#linear-gradient-3)"
    />
    <path
      d="m97.626,211.388a6,6 0 0 0 -6.767,5.12l-12.625,91.13a6,6 0 1 0 11.887,1.646l12.625,-91.13a6,6 0 0 0 -5.12,-6.766z"
      fill="url(#linear-gradient-4)"
    />
    <path
      d="m256,341.942a74.672,74.672 0 1 0 -74.79,-74.671a74.815,74.815 0 0 0 74.79,74.671zm-54.534,-80.671l-7.966,0a62.327,62.327 0 0 1 14.149,-33.942l6.01,5.842a6,6 0 1 0 8.365,-8.6l-5.865,-5.7a62.561,62.561 0 0 1 33.926,-13.98l0.117,8.265a6,6 0 0 0 6,5.915l0.087,0a6,6 0 0 0 5.914,-6.085l-0.115,-8.082a62.572,62.572 0 0 1 33.841,14.041l-5.728,5.893a6,6 0 1 0 8.6,8.364l5.618,-5.779a62.328,62.328 0 0 1 14.081,33.899l-8.36,0.069a6,6 0 0 0 0.049,12l0.05,0l8.253,-0.068a62.8,62.8 0 0 1 -124.988,-0.052l7.962,0a6,6 0 0 0 0,-12z"
      fill="url(#linear-gradient-5)"
    />
  </g>
</svg>
