<svg
  width="20"
  height="20"
  xmlns="http://www.w3.org/2000/svg"
  viewBox="0 0 64 64 "
>
  <linearGradient
    id="linear-gradient"
    x1="0.19582"
    x2="0.90472"
    y1="0.93246"
    y2="-0.08025"
  >
    <stop offset="0" stop-color="#41dfd0" />
    <stop offset="1" stop-color="#ee83ef" />
  </linearGradient>
  <g class="layer">
    <title>Layer 1</title>
    <g class="layer" id="svg_1">
      <path
        d="m5.2245,50.88555c-1.2274,0.91278 -1.9931,2.14306 -1.9931,3.50155c0,1.88255 1.46543,3.51172 3.61339,4.39092c-0.47031,0.48946 -0.74562,1.07967 -0.74562,1.71465c0,1.6831 1.93001,3.05279 4.30165,3.05279l32.97934,0c9.48801,0 17.20661,-5.47772 17.20661,-12.21114c0,-4.62802 -3.75964,-8.83374 -9.43496,-10.88725c7.3673,-3.23799 12.30273,-9.02098 12.30273,-15.62314l0,-0.347c0,-2.88285 -1.58301,-5.59474 -4.45508,-7.63298s-6.6905,-3.16065 -10.7527,-3.16065c0,0 -0.00143,0 -0.00287,0l-0.56638,0c-1.81386,0 -3.5503,0.22998 -5.17345,0.63193c-0.36851,-0.85783 -0.55778,-1.74518 -0.55778,-2.64982c0,-3.06194 1.48407,-6.06487 4.17834,-8.45622l3.10723,-2.75463l-12.3988,0l-0.86607,1.02574c-2.65412,3.13928 -4.05789,6.73343 -4.05789,10.3927c0,2.44528 0.86033,4.85088 2.47775,7.00614c-1.56007,1.735 -2.47775,3.78851 -2.47775,5.99567c0,0.7632 -0.4402,1.46534 -1.23601,1.97719c-0.79724,0.51083 -1.82964,0.75099 -2.89501,0.6767l-7.95232,-0.56375c-0.49756,-0.03562 -1.00085,-0.05291 -1.50271,-0.05291c-8.32083,0 -15.09163,4.80508 -15.09163,10.71019c0,1.15294 0.30112,2.25397 0.82592,3.27869l-0.14482,0.06818c-2.22109,1.05219 -3.54886,2.81162 -3.54886,4.7074c0,2.3364 2.006,4.34717 4.86087,5.20907zm29.55235,-39.01257c0,-3.2909 1.26182,-6.52177 3.6478,-9.3456l4.8666,-0.03765c-2.72295,2.65389 -4.21275,5.88577 -4.21275,9.17566c0,1.19669 0.27674,2.36693 0.80298,3.49442c-1.2991,0.52813 -2.48349,1.18041 -3.51875,1.93852c-1.02953,-1.64138 -1.58588,-3.41912 -1.58588,-5.22535zm-29.43478,30.88911c2.41036,2.69968 6.64749,4.50184 11.47538,4.50184l27.99659,0c2.37164,0 4.30165,1.36968 4.30165,3.05279s-1.93001,3.05279 -4.30165,3.05279l-21.50826,0l0,2.03519l21.50826,0c3.95322,0 7.16942,-2.28247 7.16942,-5.08798s-3.2162,-5.08798 -7.16942,-5.08798l-27.99659,0c-5.90904,0 -10.71828,-3.41301 -10.71828,-7.60652c0,-4.78372 5.48317,-8.675 12.22386,-8.675c0.40579,0 0.81014,0.01425 1.21593,0.04274l7.95376,0.56375c1.85831,0.12822 3.72093,-0.30324 5.10463,-1.19262c1.38513,-0.88938 2.1795,-2.16035 2.1795,-3.48628c0,-5.04829 5.78716,-9.15632 12.90066,-9.15632l0.56638,0l0.00287,0c3.2965,0 6.39512,0.91075 8.72519,2.56536c2.33006,1.65359 3.61482,3.85363 3.61482,6.19308l0,0.347c0,9.00674 -10.29242,16.33444 -22.94215,16.33444c-4.9383,0 -9.65434,-1.67394 -12.61818,-4.47742l-1.72066,-1.62815c-1.34642,-1.27403 -3.49151,-2.03519 -5.73554,-2.03519c-1.53139,0 -2.97244,0.42434 -4.05646,1.19262s-1.68051,1.79199 -1.67908,2.87979c0.00143,2.2438 2.57526,4.06835 5.73554,4.06835l10.15764,0c2.9409,1.30965 6.38078,2.03519 9.91674,2.03519c3.63633,0 7.09629,-0.54441 10.23793,-1.5152c5.81153,1.36561 9.83645,5.28335 9.83645,9.65596c0,5.61102 -6.4324,10.17595 -14.33884,10.17595l-32.97934,0c-0.7915,0 -1.43388,-0.4569 -1.43388,-1.0176s0.64238,-1.0176 1.43388,-1.0176l21.50826,0l0,-2.03519l-21.50826,0c-2.37164,0 -4.30165,-1.36968 -4.30165,-3.05279s1.93001,-3.05279 4.30165,-3.05279l32.97934,0l0,-2.03519l-35.04413,0c-2.81471,0 -5.10463,-1.6251 -5.10463,-3.62264c0,-1.16209 0.79581,-2.23362 2.11068,-2.91439zm18.85414,-3.63892l-6.62598,0c-1.58157,0 -2.86633,-0.91278 -2.86777,-2.03417c0,-0.5434 0.29825,-1.05525 0.83882,-1.4399c0.54201,-0.38465 1.26325,-0.59631 2.02895,-0.59631c1.34642,0 2.63261,0.4569 3.44132,1.22111l1.72066,1.62815c0.45454,0.43044 0.94493,0.83748 1.464,1.22111zm-12.36152,14.24633l8.60331,0l0,2.03519l-8.60331,0l0,-2.03519zm34.41322,6.10557l-11.47107,0l0,-2.03519l11.47107,0l0,2.03519z"
        fill="url(#linear-gradient)"
        id="svg_2"
      />
    </g>
  </g>
</svg>
