<svg xmlns="http://www.w3.org/2000/svg" xmlns:xlink="http://www.w3.org/1999/xlink" viewBox="0 0 512 512" width="20"
    height="20">
    <linearGradient id="linear-gradient" x1="0.19582" x2="0.90472" y1="0.93246" y2="-0.08025">
        <stop offset="0" stop-color="#41dfd0" />
        <stop offset="1" stop-color="#ee83ef" />
    </linearGradient>
    <path
        d="M80,64a8,8,0,0,1,8-8H248a8,8,0,0,1,0,16H88A8,8,0,0,1,80,64ZM496,296V456a40.045,40.045,0,0,1-40,40H328a40.037,40.037,0,0,1-35.79-22.168C274.206,479.988,222.876,496,176,496c-56.524,0-134.986-23.344-138.3-24.337a8,8,0,0,1-5.695-7.35l-16-408C16,56.209,16,56.1,16,56V24a8,8,0,0,1,8-8H312a8,8,0,0,1,8,8V56c0,.1,0,.209-.006.313l-7.273,185.454A72.047,72.047,0,0,1,336,228.128V201.869A23.943,23.943,0,0,1,328,184V168a24.028,24.028,0,0,1,24-24h80a24.028,24.028,0,0,1,24,24v16a23.943,23.943,0,0,1-8,17.869v26.259A72.114,72.114,0,0,1,496,296ZM344,184a8.009,8.009,0,0,0,8,8h80a8.009,8.009,0,0,0,8-8V168a8.009,8.009,0,0,0-8-8H352a8.009,8.009,0,0,0-8,8Zm8,40.455a72.383,72.383,0,0,1,8-.455h64a72.383,72.383,0,0,1,8,.455V208H352ZM480,448V312H304V448ZM288.072,458.317c-.044-.767-.072-1.539-.072-2.317V296a71.526,71.526,0,0,1,7.863-32.654L303.366,72H280a8,8,0,0,1,0-16h23.994l.006-.156V32H32V55.844l.006.156H56a8,8,0,0,1,0,16H32.634L47.767,457.907C66.606,463.192,130.127,480,176,480,220.918,480,272,463.821,288.072,458.317ZM478.624,464H305.376A24.039,24.039,0,0,0,328,480H456A24.039,24.039,0,0,0,478.624,464ZM480,296a56.063,56.063,0,0,0-56-56H360a56.063,56.063,0,0,0-56,56Zm-24,80a24.028,24.028,0,0,1-24,24H400a24.038,24.038,0,0,1-22.828-16.6l-8.2,8.2a24,24,0,0,1-33.941-33.942l11.31-11.309,0,0,0,0,11.309-11.309A24,24,0,0,1,398.627,352v.042c.455-.026.913-.042,1.374-.042h32A24.028,24.028,0,0,1,456,376Zm-87.029-29.656L363.314,352l11.313,11.313,5.657-5.657a8,8,0,1,0-11.313-11.313Zm-11.314,33.94,5.657-5.657L352,363.314l-5.657,5.657a8,8,0,1,0,11.314,11.313ZM400,384h8V368h-8a8,8,0,0,0,0,16Zm40-8a8.009,8.009,0,0,0-8-8h-8v16h8A8.009,8.009,0,0,0,440,376Zm-32,40H376a8,8,0,0,0,0,16h32a8,8,0,0,0,0-16ZM192,368a8,8,0,0,0,0-16H160a8,8,0,0,0,0,16Zm32,16H128a8,8,0,0,0,0,16h96a8,8,0,0,0,0-16Zm47.994-113.33a41.29,41.29,0,0,1-11.265,28.845A39.184,39.184,0,0,1,232.344,312h-.338a39.989,39.989,0,0,1-19.785-5.235C200.523,315.089,184.75,320,168,320s-32.523-4.911-44.221-13.235a40,40,0,1,1,0-69.53C135.477,228.911,151.25,224,168,224a84.863,84.863,0,0,1,18.619,2.042c8.109-8.648,8.373-32.874,6.418-50.042H176a24,24,0,0,1,0-48h24.379a23.823,23.823,0,0,1,18.945,9.264C234.98,157.431,271.454,210.8,271.994,270.67Zm-16,.144c-.511-56.54-37.871-109-49.31-123.738A7.925,7.925,0,0,0,200.379,144H176a8,8,0,0,0,0,16h24a8,8,0,0,1,7.891,6.685c.8,4.8,6.773,43.671-5.516,64.754,1.018.484,2.027.983,3.013,1.512a8,8,0,1,1-7.566,14.1A63.219,63.219,0,0,0,168,240c-19.545,0-37.019,7.919-44.516,20.175a8,8,0,0,1-13.649-8.35c.542-.885,1.125-1.749,1.733-2.6a24,24,0,1,0,0,45.552c-.608-.852-1.191-1.716-1.733-2.6a8,8,0,0,1,13.649-8.35C130.981,296.081,148.455,304,168,304s37.019-7.919,44.516-20.175a8,8,0,0,1,13.649,8.35c-.544.888-1.129,1.755-1.739,2.61a23.538,23.538,0,0,0,24.662-6.247A25.362,25.362,0,0,0,256,270.814Z"
        fill="url(#linear-gradient)" />
</svg>