<svg
  width="20"
  height="20"
  viewBox="0 0 512 512"
  xmlns="http://www.w3.org/2000/svg"
>
  <linearGradient
    id="linear-gradient"
    x1="0.19582"
    x2="0.90472"
    y1="0.93246"
    y2="-0.08025"
  >
    <stop offset="0" stop-color="#41dfd0" />
    <stop offset="1" stop-color="#ee83ef" />
  </linearGradient>
  <g class="layer">
    <path
      d="m57.353,24.827c-0.721,-0.534 -1.615,-0.827 -2.516,-0.827c-1.128,0 -2.185,0.451 -2.961,1.218c-0.145,-0.121 -0.277,-0.254 -0.427,-0.369c-0.555,-0.424 -1.221,-0.676 -1.905,-0.78l0.441,-4.849c0.01,-0.116 0.015,-0.233 0.015,-0.35c0,-2.134 -1.736,-3.87 -3.87,-3.87l-0.26,0c-2.134,0 -3.87,1.736 -3.87,3.87c0,0.117 0.005,0.234 0.016,0.351l0.443,4.87c-0.634,0.12 -1.247,0.365 -1.765,0.751c-0.179,0.134 -0.338,0.288 -0.51,0.429c-0.089,-0.092 -0.183,-0.178 -0.28,-0.261c0.057,-0.333 0.096,-0.67 0.096,-1.01c0,-1.27 -0.396,-2.485 -1.13,-3.5c0.734,-1.015 1.13,-2.229 1.13,-3.5c0,-3.424 -2.897,-6.199 -6.349,-5.989c-0.642,-1.84 -2.139,-3.227 -3.979,-3.762c-1.218,-1.519 -3.054,-2.362 -5.021,-2.238c-0.828,-2.373 -3.07,-4.011 -5.651,-4.011c-2.165,0 -4.136,1.158 -5.198,3.003c-2.648,0.089 -4.937,1.958 -5.593,4.504c-3.096,1.155 -5.209,4.152 -5.209,7.493c0,2.679 1.318,5.128 3.499,6.608c-0.329,0.751 -0.499,1.563 -0.499,2.392c0,1.8 0.8,3.473 2.173,4.606c-0.115,0.464 -0.173,0.931 -0.173,1.394c0,3.064 2.31,5.6 5.28,5.957l2.212,6.195c-1.133,0.835 -2.098,1.88 -2.841,3.08l-5.239,-1.164c-0.199,-0.046 -0.404,-0.068 -0.61,-0.068c-1.545,0 -2.802,1.257 -2.802,2.802l0,0.396c0,0.28 0.054,0.546 0.131,0.802l-0.131,0c-1.654,0 -3,1.346 -3,3s1.346,3 3,3l0.131,0c-0.077,0.256 -0.131,0.522 -0.131,0.802l0,0.396c0,1.545 1.257,2.802 2.802,2.802c0.206,0 0.411,-0.022 0.608,-0.067l5.241,-1.165c1.941,3.134 5.4,5.232 9.349,5.232l0.235,0c0.556,0 1.119,-0.043 1.672,-0.128l34.291,-5.275c2.782,-0.429 4.802,-2.782 4.802,-5.597c0,-2.251 -1.303,-4.188 -3.243,-5.101c2.072,-2.475 3.243,-5.615 3.243,-8.848l0,-2.103c0,-4.353 -2.111,-8.511 -5.647,-11.121zm-7.12,1.611c2.985,2.282 4.767,5.917 4.767,9.726l0,3.673c0,2.05 -0.511,4.057 -1.474,5.848l-8.019,-1.234c-0.33,-1.451 -0.507,-2.933 -0.507,-4.421l0,-4.06c0,-1.008 0.101,-2.015 0.254,-3.013c0.245,0.021 0.489,0.043 0.746,0.043c2.851,0 5,-1.29 5,-3c0,-0.944 -0.653,-1.782 -1.784,-2.332l0.147,-1.618c0.312,0.063 0.612,0.189 0.87,0.388zm-4.363,-9.438l0.261,0c1.031,0 1.87,0.839 1.87,1.87c0,0.057 -0.002,0.114 -0.008,0.17l-0.908,9.987l0.763,0.245c0.876,0.28 1.152,0.649 1.152,0.728c0,0.249 -1.064,1 -3,1s-3,-0.751 -3,-1c0,-0.079 0.276,-0.448 1.152,-0.729l0.763,-0.245l-0.908,-9.986c-0.005,-0.057 -0.007,-0.114 -0.007,-0.17c0,-1.031 0.839,-1.87 1.87,-1.87zm-3.23,9.083l0.144,1.585c-1.131,0.55 -1.784,1.388 -1.784,2.332c0,1.102 0.899,2.023 2.296,2.543c-0.179,1.135 -0.296,2.281 -0.296,3.427l0,4.06c0,1.374 0.132,2.746 0.388,4.095l-5.895,-0.907c-0.321,-1.099 -0.493,-2.232 -0.493,-3.382l0,-3.673c0,-3.803 1.828,-7.437 4.89,-9.719c0.223,-0.166 0.48,-0.288 0.75,-0.361zm-10.807,16.264c-0.543,-1.374 -0.833,-2.813 -0.833,-4.296l0,-2.103c0,-3.722 1.808,-7.278 4.835,-9.514c0.38,-0.28 0.852,-0.434 1.328,-0.434c0.604,0 1.16,0.243 1.567,0.65c-2.358,2.584 -3.73,5.978 -3.73,9.514l0,3.673c0,1.031 0.123,2.051 0.346,3.051l-3.513,-0.541zm0.094,-30.046l0.182,1.029l1.02,-0.227c0.31,-0.069 0.595,-0.103 0.871,-0.103c2.206,0 4,1.794 4,4c0,1.051 -0.408,2.045 -1.148,2.799l-0.688,0.701l0.688,0.701c0.74,0.754 1.148,1.748 1.148,2.799c0,0.03 -0.006,0.06 -0.006,0.091c-0.271,-0.054 -0.547,-0.091 -0.831,-0.091c-0.901,0 -1.795,0.293 -2.516,0.826c-1.82,1.343 -3.253,3.1 -4.225,5.079c-0.379,-1.18 -0.777,-2.31 -1.187,-3.383c0.925,-4.886 4.356,-7.714 4.391,-7.743l-0.626,-0.779l-0.625,-0.781c-0.139,0.111 -2.844,2.32 -4.363,6.305c-2.081,-4.778 -4.045,-7.869 -4.171,-8.065l-1.683,1.082c0.027,0.041 1.552,2.44 3.327,6.259c-2.991,-1.126 -6.39,-0.815 -6.585,-0.795l0.199,1.99c1.504,-0.151 5.764,-0.078 7.754,1.953c0.701,1.723 1.392,3.612 2.002,5.636c-3.04,-1.559 -6.667,-1.584 -6.855,-1.584l0,2c0.047,0 4.499,0.03 7.134,2.125c-0.082,0.602 -0.134,1.21 -0.134,1.824l0,2.103c0,1.351 0.208,2.672 0.594,3.952l-5.687,-0.875c-0.3,-0.046 -0.603,-0.077 -0.907,-0.099c-2.206,0 -4,-1.808 -4,-4.029c0,-0.466 0.093,-0.944 0.275,-1.423l0.292,-0.765l-0.693,-0.438c-1.173,-0.742 -1.874,-2.003 -1.874,-3.375c0,-0.787 0.231,-1.55 0.668,-2.208l0.623,-0.936l-1.002,-0.509c-2.029,-1.032 -3.289,-3.08 -3.289,-5.347c0,-2.661 1.788,-5.031 4.349,-5.764l0.621,-0.178l0.093,-0.639c0.285,-1.949 1.978,-3.419 3.937,-3.419c0.037,0 0.073,0.008 0.109,0.013c0.07,0.01 0.141,0.019 0.212,0.024l0.717,0.058l0.282,-0.662c0.631,-1.478 2.075,-2.433 3.68,-2.433c1.938,0 3.589,1.388 3.927,3.301zm-17.222,22.699l-0.705,0c-2.206,0 -4,-1.794 -4,-4c0,-0.467 0.093,-0.945 0.275,-1.422l0.293,-0.765l-0.693,-0.438c-1.174,-0.742 -1.875,-2.003 -1.875,-3.375c0,-0.787 0.231,-1.55 0.668,-2.208l0.623,-0.936l-1.002,-0.509c-2.029,-1.032 -3.289,-3.08 -3.289,-5.347c0,-2.661 1.788,-5.031 4.348,-5.764l0.621,-0.178l0.093,-0.639c0.286,-1.949 1.979,-3.419 3.938,-3.419c0.038,0 0.075,0.008 0.112,0.013c0.068,0.009 0.136,0.018 0.206,0.024l0.72,0.06l0.283,-0.665c0.63,-1.477 2.074,-2.432 3.679,-2.432c1.938,0 3.589,1.388 3.927,3.301l0.182,1.029l1.02,-0.227c0.31,-0.069 0.595,-0.103 0.871,-0.103c0.46,0 0.897,0.101 1.315,0.247c-1.47,0.43 -2.736,1.406 -3.513,2.756c-2.648,0.089 -4.937,1.958 -5.593,4.504c-3.096,1.155 -5.209,4.152 -5.209,7.493c0,2.679 1.318,5.128 3.499,6.608c-0.329,0.751 -0.499,1.563 -0.499,2.392c0,1.8 0.8,3.473 2.173,4.607c-0.115,0.464 -0.173,0.93 -0.173,1.393c0,1.757 0.756,3.336 1.953,4.438c-0.594,0.172 -1.165,0.395 -1.713,0.66l-2.535,-7.098zm-8.705,13.198l0,-0.396c0,-0.502 0.486,-0.889 0.977,-0.783l4.759,1.058c-0.116,0.302 -0.22,0.609 -0.309,0.923l-4.625,0c-0.442,0 -0.802,-0.36 -0.802,-0.802zm-3,3.802c0,-0.551 0.449,-1 1,-1l2.802,0l4.248,0c-0.029,0.33 -0.05,0.662 -0.05,1s0.021,0.67 0.051,1l-4.249,0l-2.802,0c-0.551,0 -1,-0.449 -1,-1zm3.975,4.981c-0.474,0.102 -0.975,-0.282 -0.975,-0.783l0,-0.396c0,-0.442 0.36,-0.802 0.802,-0.802l4.624,0c0.089,0.314 0.194,0.621 0.309,0.923l-4.76,1.058zm54.025,-4.981c0,1.821 -1.306,3.343 -3.105,3.62l-34.29,5.275c-0.454,0.07 -0.915,0.105 -1.37,0.105l-0.235,0c-4.962,0 -9,-4.038 -9,-9s4.038,-9 9,-9l0.235,0c0.455,0 0.916,0.035 1.369,0.104l34.29,5.275c1.8,0.278 3.106,1.8 3.106,3.621zm0,-13.949c0,3.076 -1.245,6.052 -3.411,8.258l-1.987,-0.306c0.913,-1.918 1.398,-4.021 1.398,-6.167l0,-3.673c0,-3.554 -1.354,-6.965 -3.68,-9.553c0.404,-0.381 0.94,-0.61 1.517,-0.61c0.477,0 0.948,0.154 1.328,0.436c3.027,2.234 4.835,5.791 4.835,9.513l0,2.102zm-40,8.949l2,0l0,10l-2,0l0,-10zm8,0l2,0l0,10l-2,0l0,-10zm8,0l2,0l0,10l-2,0l0,-10zm8,2l2,0l0,6l-2,0l0,-6zm8,1l2,0l0,4l-2,0l0,-4z"
      fill="url(#linear-gradient)"
    />
  </g>
</svg>
